#!OML:ASF F:\twosubjects\two\Thursday\Session 1\justin.ASF
:FULLY-SPECIFIED
:DEGREES
471
root 21.217 18.608 4.12866 22.8946 -83.9765 -5.91124
lowerback 13.2886 0.502525 0.117853
upperback 7.65731 0.309852 3.01937
thorax 0.580696 -0.0691255 3.04129
lowerneck -22.9777 -2.62605 -10.3271
upperneck 27.8294 -1.55049 4.49973
head 13.346 -1.25329 3.22096
rclavicle 4.37326e-015 -1.66979e-014
rhumerus 23.0822 28.7124 -60.9546
rradius 68.3705
rwrist 24.0766
rhand -54.6814 59.5197
rfingers 7.12502
rthumb -27.0754 31.441
lclavicle 4.37326e-015 -1.66979e-014
lhumerus 29.765 -28.0155 70.0339
lradius 55.7941
lwrist -38.1456
lhand -43.4658 65.1164
lfingers 7.12502
lthumb -16.3069 -94.4508
rfemur -30.3904 -5.12052 22.5535
rtibia 26.266
rfoot -12.1636 -10.2885
rtoes -3.86905
lfemur -17.6973 3.43511 -14.943
ltibia 9.07987
lfoot -5.45581 -0.158359
ltoes -13.4456
472
root 21.2297 18.6008 4.15409 26.3888 -83.8481 -9.51659
lowerback 13.2762 0.406246 0.468362
upperback 7.62376 0.22178 3.10588
thorax 0.558416 -0.104328 2.94459
lowerneck -23.005 -2.58032 -10.3835
upperneck 27.9274 -1.48324 4.55559
head 13.3871 -1.22663 3.26727
rclavicle 1.19271e-014 6.36111e-015
rhumerus 23.1096 28.4589 -61.4325
rradius 68.2026
rwrist 24.3139
rhand -55.0036 59.2535
rfingers 7.12502
rthumb -27.3836 31.2231
lclavicle 1.19271e-014 6.36111e-015
lhumerus 29.6864 -27.7929 70.2832
lradius 55.7253
lwrist -38.166
lhand -43.5795 66.1332
lfingers 7.12502
lthumb -16.4163 -95.4586
rfemur -30.3489 -4.98284 22.8701
rtibia 26.3143
rfoot -12.1675 -10.3008
rtoes -4.96503
lfemur -17.7883 3.44585 -14.6316
ltibia 9.10724
lfoot -5.24996 0.176003
ltoes -17.7851
473
root 21.2469 18.598 4.17914 23.2902 -84.0055 -6.56845
lowerback 13.3818 0.457151 0.19074
upperback 7.61434 0.26326 2.86938
thorax 0.488355 -0.084573 2.84891
lowerneck -23.0547 -2.63902 -10.0655
upperneck 28.0364 -1.68673 4.54511
head 13.4566 -1.28487 3.17576
rclavicle 1.19271e-014 2.18663e-014
rhumerus 23.3774 27.7958 -62.2125
rradius 67.5845
rwrist 24.4643
rhand -55.7295 58.0358
rfingers 7.12502
rthumb -28.0777 30.1172
lclavicle 1.19271e-014 2.18663e-014
lhumerus 29.8337 -27.7644 70.4853
lradius 55.5294
lwrist -38.4532
lhand -43.7159 65.688
lfingers 7.12502
lthumb -16.5477 -95.0024
rfemur -30.2637 -5.12618 22.395
rtibia 26.3204
rfoot -12.3099 -10.0638
rtoes -4.34413
lfemur -17.7865 3.41127 -15.0912
ltibia 9.26338
lfoot -5.3711 0.239885
ltoes -17.6953
474
root 21.2631 18.6042 4.19676 22.1891 -84.2851 -5.59041
lowerback 13.5337 0.495876 -0.213014
upperback 7.55652 0.275268 2.88061
thorax 0.343744 -0.0888202 3.08831
lowerneck -22.9661 -2.61799 -9.96064
upperneck 27.9842 -1.60248 4.22
head 13.4065 -1.28242 3.04095
rclavicle 1.78906e-014 4.57205e-014
rhumerus 23.8461 27.5864 -62.9114
rradius 66.8325
rwrist 24.7637
rhand -55.4325 57.4485
rfingers 7.12502
rthumb -27.7937 29.4837
lclavicle 1.78906e-014 4.57205e-014
lhumerus 29.6488 -27.1474 71.194
lradius 55.2542
lwrist -38.8574
lhand -44.0465 64.5924
lfingers 7.12502
lthumb -16.866 -93.88
rfemur -30.1806 -5.02528 22.1062
rtibia 26.2917
rfoot -12.2804 -9.9639
rtoes -2.88763
lfemur -17.6338 3.60715 -15.3428
ltibia 9.34747
lfoot -5.7162 -0.0120448
ltoes -16.0966
475
root 21.2816 18.6104 4.2161 25.4233 -84.6431 -8.87799
lowerback 13.6656 0.645958 -0.27425
upperback 7.35562 0.481399 3.02959
thorax 0.0489568 0.0161994 3.25235
lowerneck -22.5745 -2.56205 -10.0657
upperneck 28.0443 -1.44723 3.92448
head 13.3386 -1.27673 2.96763
rclavicle 1.35174e-014 3.18055e-015
rhumerus 23.2146 27.3794 -63.2588
rradius 67.0073
rwrist 25.0349
rhand -54.8883 57.752
rfingers 7.12502
rthumb -27.2733 29.7043
lclavicle 1.35174e-014 3.18055e-015
lhumerus 29.3092 -26.8708 71.9612
lradius 55.0666
lwrist -39.1011
lhand -44.3038 64.7346
lfingers 7.12502
lthumb -17.1136 -94.0008
rfemur -30.1563 -4.53161 22.1843
rtibia 26.2055
rfoot -11.8794 -10.0969
rtoes -2.80045
lfemur -17.5325 4.05169 -15.2346
ltibia 9.37788
lfoot -5.70608 -0.192236
ltoes -15.3809
476
root 21.3038 18.612 4.25017 26.5725 -84.7534 -10.066
lowerback 13.6615 0.615174 -0.104961
upperback 7.31982 0.4624 2.98391
thorax 0.0159131 0.0135281 3.11085
lowerneck -22.6826 -2.42894 -9.96697
upperneck 28.1668 -1.19419 3.64484
head 13.389 -1.20004 2.88697
rclavicle -1.15295e-014 7.15625e-015
rhumerus 22.9357 27.0085 -63.3195
rradius 67.3274
rwrist 25.0826
rhand -55.045 57.3516
rfingers 7.12502
rthumb -27.4232 29.3275
lclavicle -1.15295e-014 7.15625e-015
lhumerus 29.3404 -26.616 72.1724
lradius 54.9768
lwrist -39.3369
lhand -44.2951 65.4094
lfingers 7.12502
lthumb -17.1052 -94.6764
rfemur -30.0566 -4.2454 22.0762
rtibia 26.0327
rfoot -11.6614 -10.3093
rtoes -3.31905
lfemur -17.6024 4.17418 -15.2721
ltibia 9.4946
lfoot -5.57921 -0.251331
ltoes -15.3549
477
root 21.321 18.6168 4.28653 26.0515 -84.6833 -9.60585
lowerback 13.6186 0.476835 0.173354
upperback 7.28575 0.315469 2.80918
thorax 0.0128238 -0.0463735 2.78942
lowerneck -22.6852 -2.3047 -9.77427
upperneck 28.127 -1.02265 3.44609
head 13.3559 -1.13137 2.80491
rclavicle 5.56597e-015 -2.70347e-014
rhumerus 22.8711 26.4267 -64.1007
rradius 67.0382
rwrist 25.6454
rhand -54.4459 56.5914
rfingers 7.12502
rthumb -26.8501 28.4779
lclavicle 5.56597e-015 -2.70347e-014
lhumerus 29.4034 -26.3436 72.2237
lradius 54.7832
lwrist -39.662
lhand -44.1592 65.0047
lfingers 7.12502
lthumb -16.9745 -94.283
rfemur -29.8993 -4.13133 21.8583
rtibia 25.9125
rfoot -11.7006 -10.698
rtoes -2.34683
lfemur -17.5983 4.0571 -15.3961
ltibia 9.51868
lfoot -5.58185 -0.303918
ltoes -15.095
478
root 21.3326 18.624 4.31136 22.6455 -84.7536 -6.27877
lowerback 13.5926 0.473207 -0.0370872
upperback 7.21472 0.294694 2.65195
thorax -0.0483398 -0.0546992 2.74643
lowerneck -22.59 -2.30347 -9.90834
upperneck 28.212 -1.01787 3.5414
head 13.3729 -1.13545 2.86756
rclavicle 4.77083e-015 -1.98785e-015
rhumerus 22.6013 25.7002 -65.0102
rradius 66.6012
rwrist 26.4017
rhand -53.889 56.5383
rfingers 7.12502
rthumb -26.3171 28.344
lclavicle 4.77083e-015 -1.98785e-015
lhumerus 29.4083 -26.2331 72.3614
lradius 54.5836
lwrist -39.8307
lhand -44.0783 64.0803
lfingers 7.12502
lthumb -16.8965 -93.3653
rfemur -29.7972 -3.82408 21.2927
rtibia 25.9117
rfoot -11.7808 -11.117
rtoes -1.86283
lfemur -17.4775 3.94481 -15.8593
ltibia 9.43205
lfoot -5.55119 -0.343378
ltoes -15.4245
479
root 21.3503 18.6305 4.34171 21.7646 -84.9463 -5.43192
lowerback 13.6076 0.595565 -0.105005
upperback 7.15361 0.45285 2.61032
thorax -0.128836 0.0258743 2.71999
lowerneck -22.5564 -2.38815 -10.0896
upperneck 28.315 -1.10778 3.62745
head 13.4194 -1.18681 2.91835
rclavicle -8.34896e-015 -4.41302e-014
rhumerus 22.4408 24.9982 -65.3017
rradius 66.429
rwrist 26.7682
rhand -54.044 56.4787
rfingers 7.12502
rthumb -26.4654 28.3067
lclavicle -8.34896e-015 -4.41302e-014
lhumerus 29.5124 -26.2933 72.4893
lradius 54.5452
lwrist -39.8112
lhand -44.0352 63.7494
lfingers 7.12502
lthumb -16.8551 -93.038
rfemur -29.8501 -4.1293 21.219
rtibia 25.8995
rfoot -11.607 -10.7112
rtoes -3.68591
lfemur -17.5209 4.05466 -16.1414
ltibia 9.54067
lfoot -5.59068 -0.330318
ltoes -15.0113
480
root 21.3691 18.6344 4.37527 25.2426 -85.1979 -8.89064
lowerback 13.6311 0.66739 0.0407259
upperback 7.03859 0.572214 2.69981
thorax -0.267404 0.0905144 2.71485
lowerneck -22.5099 -2.41592 -10.2799
upperneck 28.381 -1.06597 3.56464
head 13.4373 -1.2026 2.9335
rclavicle 7.55382e-015 2.10712e-014
rhumerus 22.3995 24.9043 -65.1841
rradius 66.4355
rwrist 26.4755
rhand -54.2862 55.6817
rfingers 7.12502
rthumb -26.6972 27.5448
lclavicle 7.55382e-015 2.10712e-014
lhumerus 29.4225 -26.0202 72.8416
lradius 54.478
lwrist -40.1225
lhand -43.6009 63.3775
lfingers 7.12502
lthumb -16.4369 -92.7011
rfemur -29.992 -4.78252 21.6839
rtibia 25.8489
rfoot -11.3103 -9.93823
rtoes -5.4458
lfemur -17.7491 4.38612 -16.0539
ltibia 9.90707
lfoot -5.77271 -0.265012
ltoes -13.7462
